# xmcd
# 
# Track frame offsets:
#     150
#     21696
#     37742
#     56413
#     74326
#     92755
#     110301
#     131349
#     144200
#     162455
#     200322
# 
# Disc length: 3019
# 
# Revision: 0
# Processed by: cddbd v1.5.2PL0 Copyright (c) Steve Scherf et al.
# Submitted via: fre:ac v1.0.17
# 
DISCID=900bc90b
DTITLE=Dub Miller - The Midnight Ambassador
DYEAR=2016
DGENRE=Country
TTITLE0=Things I Love About You
TTITLE1=Broken Crown
TTITLE2=The Day Jesus Left Odessa
TTITLE3=Mandi Jean
TTITLE4=Charlie Goodnight
TTITLE5=Comfortably Blue
TTITLE6=The Last Church Bell
TTITLE7=Taking Our Sunshine Away
TTITLE8=Big Chief Tablet
TTITLE9=Ain't No Cowboy
TTITLE10=The Midnight Ambassador
EXTD=
EXTT0=
EXTT1=
EXTT2=
EXTT3=
EXTT4=
EXTT5=
EXTT6=
EXTT7=
EXTT8=
EXTT9=
EXTT10=
PLAYORDER=
